<svg width="21" height="20" viewBox="0 0 21 20" fill="none" xmlns="http://www.w3.org/2000/svg">
<path d="M1 9.76914C1 6.28799 1 4.54743 2.08145 3.46597C3.16291 2.38452 4.90347 2.38452 8.38462 2.38452H12.0769C15.558 2.38452 17.2987 2.38452 18.3801 3.46597C19.4615 4.54743 19.4615 6.28799 19.4615 9.76914V11.6153C19.4615 15.0964 19.4615 16.837 18.3801 17.9184C17.2987 18.9999 15.558 18.9999 12.0769 18.9999H8.38462C4.90347 18.9999 3.16291 18.9999 2.08145 17.9184C1 16.837 1 15.0964 1 11.6153V9.76914Z" stroke="#787878" stroke-width="1.5"/>
<path opacity="0.5" d="M5.61539 2.38462V1" stroke="#787878" stroke-width="1.5" stroke-linecap="round"/>
<path opacity="0.5" d="M14.8462 2.38462V1" stroke="#787878" stroke-width="1.5" stroke-linecap="round"/>
<path opacity="0.5" d="M1.46153 7H19" stroke="#787878" stroke-width="1.5" stroke-linecap="round"/>
<path d="M15.7692 14.3845C15.7692 14.8943 15.356 15.3076 14.8462 15.3076C14.3363 15.3076 13.9231 14.8943 13.9231 14.3845C13.9231 13.8747 14.3363 13.4614 14.8462 13.4614C15.356 13.4614 15.7692 13.8747 15.7692 14.3845Z" fill="#787878"/>
<path d="M15.7692 10.6924C15.7692 11.2022 15.356 11.6154 14.8462 11.6154C14.3363 11.6154 13.9231 11.2022 13.9231 10.6924C13.9231 10.1825 14.3363 9.76929 14.8462 9.76929C15.356 9.76929 15.7692 10.1825 15.7692 10.6924Z" fill="#787878"/>
<path d="M11.1538 14.3845C11.1538 14.8943 10.7406 15.3076 10.2308 15.3076C9.72096 15.3076 9.30769 14.8943 9.30769 14.3845C9.30769 13.8747 9.72096 13.4614 10.2308 13.4614C10.7406 13.4614 11.1538 13.8747 11.1538 14.3845Z" fill="#787878"/>
<path d="M11.1538 10.6924C11.1538 11.2022 10.7406 11.6154 10.2308 11.6154C9.72096 11.6154 9.30769 11.2022 9.30769 10.6924C9.30769 10.1825 9.72096 9.76929 10.2308 9.76929C10.7406 9.76929 11.1538 10.1825 11.1538 10.6924Z" fill="#787878"/>
<path d="M6.53846 14.3845C6.53846 14.8943 6.12518 15.3076 5.61538 15.3076C5.10559 15.3076 4.69231 14.8943 4.69231 14.3845C4.69231 13.8747 5.10559 13.4614 5.61538 13.4614C6.12518 13.4614 6.53846 13.8747 6.53846 14.3845Z" fill="#787878"/>
<path d="M6.53846 10.6924C6.53846 11.2022 6.12518 11.6154 5.61538 11.6154C5.10559 11.6154 4.69231 11.2022 4.69231 10.6924C4.69231 10.1825 5.10559 9.76929 5.61538 9.76929C6.12518 9.76929 6.53846 10.1825 6.53846 10.6924Z" fill="#787878"/>
</svg>
