<svg width="102" height="40" viewBox="0 0 102 40" fill="none" xmlns="http://www.w3.org/2000/svg">
<path d="M70.7652 29.1942C69.3422 29.8854 68.1631 30.8612 66.6588 31.3491C60.6414 33.3007 54.0954 30.292 51.7779 24.4778C49.2571 18.1352 52.1438 10.9387 58.2019 8.2959C63.894 5.81576 70.6433 8.2959 73.53 14.0287C73.8146 14.6386 74.0586 15.2891 74.2212 15.9396C75.319 21.1439 75.5222 26.4294 74.1399 31.593C72.9608 36.0654 69.6268 38.7489 65.1544 39.7247C60.5194 40.7004 56.6569 39.0335 53.6075 35.4962C52.7943 34.5611 52.591 33.504 53.5668 32.6095C54.5833 31.715 55.6404 32.0809 56.4129 32.9754C58.2425 35.2116 60.56 36.35 63.4874 36.1467C67.228 35.9028 70.4806 32.8534 70.7652 29.1942Z" fill="#71C27A"/>
<path d="M13.5999 6.0191C10.6318 13.2563 7.86706 20.0055 5.1023 26.7141C4.65506 27.7712 5.14296 27.9338 6.11876 27.9338C8.88351 27.8932 11.6483 27.9338 14.4537 27.8932C15.8767 27.8525 17.2184 28.0965 17.1778 29.8041C17.1371 31.3085 15.958 31.6337 14.5757 31.6337C10.6725 31.5524 6.72863 31.6337 2.78479 31.5931C0.304642 31.5931 -0.549179 30.3733 0.3453 28.1371C3.88256 19.355 7.50114 10.6541 11.0384 1.87197C11.5263 0.652229 12.3801 -0.0389597 13.5999 0.00169847C15.1042 0.00169847 15.8361 1.05881 16.3646 2.31921C19.2107 9.31242 22.0568 16.3056 24.9028 23.2988C25.594 24.9658 26.2445 26.6734 26.9764 28.3404C27.5456 29.5602 27.4643 30.7393 26.2852 31.3491C24.9435 31.9997 23.9677 31.1458 23.4391 29.8854C21.081 24.1526 18.7228 18.4198 16.3646 12.687C15.5515 10.6135 14.657 8.58057 13.5999 6.0191Z" fill="#AAD7AA"/>
<path d="M80.5232 23.0142C80.5232 21.1032 80.4419 19.233 80.5232 17.3627C80.8485 11.7112 85.4835 7.32012 91.013 7.27946C96.2986 7.2388 100.893 11.5079 101.421 16.9561C101.828 20.9813 101.503 25.0471 101.584 29.1129C101.625 30.4546 101.056 31.5117 99.7138 31.5117C98.2095 31.5117 97.7623 30.3326 97.7623 28.9503C97.7623 25.4943 97.7623 22.079 97.7623 18.6231C97.7623 14.1507 95.0788 11.142 91.0537 11.1013C87.0692 11.0607 84.3044 14.0694 84.2637 18.5418C84.2231 22.0384 84.2637 25.5756 84.2637 29.0722C84.2637 30.3733 83.8165 31.4304 82.3935 31.4711C81.0924 31.4711 80.5639 30.5766 80.5639 29.2755C80.5232 27.202 80.4825 25.1284 80.5232 23.0142Z" fill="#60BD6A"/>
<path d="M31.7334 15.7364C31.7334 11.3454 31.7334 6.95428 31.7334 2.5632C31.7334 1.3028 31.9773 0.123711 33.441 0.0830527C34.9454 0.0423945 35.474 1.22148 35.474 2.5632C35.474 11.386 35.474 20.2495 35.474 29.0723C35.474 30.3734 34.9047 31.4305 33.5224 31.4711C32.0587 31.5118 31.7334 30.3734 31.7334 29.0723C31.7741 24.6406 31.7334 20.2088 31.7334 15.7364Z" fill="#98D09A"/>
<path d="M45.5572 20.0055C45.5572 22.9735 45.5572 25.9416 45.5572 28.9096C45.5572 30.292 45.1506 31.4304 43.6463 31.5117C42.1419 31.593 41.776 30.292 41.7353 29.1129C41.6947 22.8922 41.6947 16.7122 41.7353 10.4915C41.7353 9.35304 42.2232 8.29593 43.6463 8.33659C45.1506 8.37724 45.5165 9.43435 45.5572 10.6948C45.5978 13.7848 45.5572 16.9155 45.5572 20.0055Z" fill="#86C98B"/>
<path d="M41.1661 2.44119C41.2881 1.05881 42.1826 0.204989 43.6056 0.0423565C44.988 -0.120276 46.1671 1.18078 46.1264 2.60382C46.1264 4.02686 44.9067 5.28726 43.5243 5.08397C42.1013 4.96199 41.1661 4.18949 41.1661 2.44119Z" fill="#85C98B"/>
<path d="M62.9181 28.2998C58.5271 28.3404 54.6645 24.3966 54.6239 19.8429C54.5832 15.0452 58.2424 11.142 62.8368 11.0607C67.2279 11.0201 71.2124 15.0452 71.2124 19.5176C71.1311 24.3559 67.4718 28.2185 62.9181 28.2998Z" fill="#FDFEFF"/>
</svg>
